<mxfile host="app.diagrams.net" modified="2023-03-14T02:29:52.508Z" agent="5.0 (Macintosh; Intel Mac OS X 10_15_7) AppleWebKit/605.1.15 (KHTML, like Gecko) Version/16.2 Safari/605.1.15" etag="KOP72PYFvBKzaaWrAeuK" version="21.0.6" type="github">
  <diagram name="Page-1" id="PQrxELan7bS2j-eix-VT">
    <mxGraphModel dx="562" dy="381" grid="1" gridSize="10" guides="1" tooltips="1" connect="1" arrows="1" fold="1" page="1" pageScale="1" pageWidth="850" pageHeight="1100" math="1" shadow="0">
      <root>
        <mxCell id="0" />
        <mxCell id="1" parent="0" />
        <mxCell id="VqF0BGbPFirMX3VU7iUr-1" value="" style="ellipse;whiteSpace=wrap;html=1;" parent="1" vertex="1">
          <mxGeometry x="290" y="510" width="50" height="50" as="geometry" />
        </mxCell>
        <mxCell id="VqF0BGbPFirMX3VU7iUr-3" value="$$\mathbf{x}_{1}$$" style="text;strokeColor=none;align=center;fillColor=none;html=1;verticalAlign=middle;whiteSpace=wrap;rounded=0;" parent="1" vertex="1">
          <mxGeometry x="285" y="520" width="60" height="30" as="geometry" />
        </mxCell>
        <mxCell id="VqF0BGbPFirMX3VU7iUr-4" value="" style="ellipse;whiteSpace=wrap;html=1;" parent="1" vertex="1">
          <mxGeometry x="400" y="510" width="50" height="50" as="geometry" />
        </mxCell>
        <mxCell id="VqF0BGbPFirMX3VU7iUr-5" value="$$\mathbf{x}_{2}$$" style="text;strokeColor=none;align=center;fillColor=none;html=1;verticalAlign=middle;whiteSpace=wrap;rounded=0;" parent="1" vertex="1">
          <mxGeometry x="395" y="520" width="60" height="30" as="geometry" />
        </mxCell>
        <mxCell id="VqF0BGbPFirMX3VU7iUr-9" value="" style="ellipse;whiteSpace=wrap;html=1;" parent="1" vertex="1">
          <mxGeometry x="585" y="510" width="50" height="50" as="geometry" />
        </mxCell>
        <mxCell id="VqF0BGbPFirMX3VU7iUr-10" value="$$\mathbf{x}_{K}$$" style="text;strokeColor=none;align=center;fillColor=none;html=1;verticalAlign=middle;whiteSpace=wrap;rounded=0;" parent="1" vertex="1">
          <mxGeometry x="580" y="520" width="60" height="30" as="geometry" />
        </mxCell>
        <mxCell id="VqF0BGbPFirMX3VU7iUr-13" value="$$\mathbf{y}_1$$" style="rounded=0;whiteSpace=wrap;html=1;" parent="1" vertex="1">
          <mxGeometry x="200" y="650" width="60" height="60" as="geometry" />
        </mxCell>
        <mxCell id="VqF0BGbPFirMX3VU7iUr-14" value="$$\mathbf{y}_2$$" style="rounded=0;whiteSpace=wrap;html=1;" parent="1" vertex="1">
          <mxGeometry x="335" y="650" width="60" height="60" as="geometry" />
        </mxCell>
        <mxCell id="VqF0BGbPFirMX3VU7iUr-15" value="$$\mathbf{y}_N$$" style="rounded=0;whiteSpace=wrap;html=1;" parent="1" vertex="1">
          <mxGeometry x="670" y="650" width="60" height="60" as="geometry" />
        </mxCell>
        <mxCell id="VqF0BGbPFirMX3VU7iUr-16" value="" style="endArrow=none;dashed=1;html=1;rounded=0;" parent="1" edge="1">
          <mxGeometry width="50" height="50" relative="1" as="geometry">
            <mxPoint x="350" y="535" as="sourcePoint" />
            <mxPoint x="390" y="534.71" as="targetPoint" />
          </mxGeometry>
        </mxCell>
        <mxCell id="VqF0BGbPFirMX3VU7iUr-18" value="" style="endArrow=none;dashed=1;html=1;rounded=0;" parent="1" edge="1">
          <mxGeometry width="50" height="50" relative="1" as="geometry">
            <mxPoint x="460" y="535" as="sourcePoint" />
            <mxPoint x="570" y="535" as="targetPoint" />
          </mxGeometry>
        </mxCell>
        <mxCell id="byxAJlhV1Tv6mKb7Vs70-1" value="" style="endArrow=none;dashed=1;html=1;rounded=0;" edge="1" parent="1">
          <mxGeometry width="50" height="50" relative="1" as="geometry">
            <mxPoint x="280" y="679.87" as="sourcePoint" />
            <mxPoint x="320" y="679.58" as="targetPoint" />
          </mxGeometry>
        </mxCell>
        <mxCell id="byxAJlhV1Tv6mKb7Vs70-2" value="" style="endArrow=none;dashed=1;html=1;rounded=0;" edge="1" parent="1">
          <mxGeometry width="50" height="50" relative="1" as="geometry">
            <mxPoint x="425" y="679.87" as="sourcePoint" />
            <mxPoint x="640" y="680" as="targetPoint" />
          </mxGeometry>
        </mxCell>
        <mxCell id="byxAJlhV1Tv6mKb7Vs70-3" value="" style="endArrow=none;html=1;rounded=0;exitX=0.5;exitY=0;exitDx=0;exitDy=0;entryX=0.5;entryY=1;entryDx=0;entryDy=0;" edge="1" parent="1" source="VqF0BGbPFirMX3VU7iUr-13" target="VqF0BGbPFirMX3VU7iUr-1">
          <mxGeometry width="50" height="50" relative="1" as="geometry">
            <mxPoint x="260" y="610" as="sourcePoint" />
            <mxPoint x="320" y="560" as="targetPoint" />
          </mxGeometry>
        </mxCell>
        <mxCell id="byxAJlhV1Tv6mKb7Vs70-4" value="" style="endArrow=none;html=1;rounded=0;exitX=0.5;exitY=0;exitDx=0;exitDy=0;entryX=0.5;entryY=1;entryDx=0;entryDy=0;" edge="1" parent="1" source="VqF0BGbPFirMX3VU7iUr-14" target="VqF0BGbPFirMX3VU7iUr-1">
          <mxGeometry width="50" height="50" relative="1" as="geometry">
            <mxPoint x="240" y="660" as="sourcePoint" />
            <mxPoint x="320" y="570" as="targetPoint" />
          </mxGeometry>
        </mxCell>
        <mxCell id="byxAJlhV1Tv6mKb7Vs70-5" value="" style="endArrow=none;html=1;rounded=0;exitX=0.5;exitY=0;exitDx=0;exitDy=0;entryX=0.5;entryY=1;entryDx=0;entryDy=0;" edge="1" parent="1" source="VqF0BGbPFirMX3VU7iUr-15" target="VqF0BGbPFirMX3VU7iUr-1">
          <mxGeometry width="50" height="50" relative="1" as="geometry">
            <mxPoint x="290" y="660" as="sourcePoint" />
            <mxPoint x="370" y="570" as="targetPoint" />
          </mxGeometry>
        </mxCell>
        <mxCell id="byxAJlhV1Tv6mKb7Vs70-6" value="" style="endArrow=none;html=1;rounded=0;exitX=0.5;exitY=0;exitDx=0;exitDy=0;entryX=0.5;entryY=1;entryDx=0;entryDy=0;" edge="1" parent="1" source="VqF0BGbPFirMX3VU7iUr-13" target="VqF0BGbPFirMX3VU7iUr-4">
          <mxGeometry width="50" height="50" relative="1" as="geometry">
            <mxPoint x="260" y="680" as="sourcePoint" />
            <mxPoint x="340" y="590" as="targetPoint" />
          </mxGeometry>
        </mxCell>
        <mxCell id="byxAJlhV1Tv6mKb7Vs70-7" value="" style="endArrow=none;html=1;rounded=0;exitX=0.5;exitY=0;exitDx=0;exitDy=0;entryX=0.5;entryY=1;entryDx=0;entryDy=0;" edge="1" parent="1" source="VqF0BGbPFirMX3VU7iUr-13" target="VqF0BGbPFirMX3VU7iUr-9">
          <mxGeometry width="50" height="50" relative="1" as="geometry">
            <mxPoint x="240" y="660" as="sourcePoint" />
            <mxPoint x="435" y="570" as="targetPoint" />
          </mxGeometry>
        </mxCell>
        <mxCell id="byxAJlhV1Tv6mKb7Vs70-8" value="" style="endArrow=none;html=1;rounded=0;exitX=0.5;exitY=0;exitDx=0;exitDy=0;entryX=0.5;entryY=1;entryDx=0;entryDy=0;" edge="1" parent="1" source="VqF0BGbPFirMX3VU7iUr-14" target="VqF0BGbPFirMX3VU7iUr-4">
          <mxGeometry width="50" height="50" relative="1" as="geometry">
            <mxPoint x="250" y="670" as="sourcePoint" />
            <mxPoint x="445" y="580" as="targetPoint" />
          </mxGeometry>
        </mxCell>
        <mxCell id="byxAJlhV1Tv6mKb7Vs70-9" value="" style="endArrow=none;html=1;rounded=0;exitX=0.5;exitY=0;exitDx=0;exitDy=0;entryX=0.5;entryY=1;entryDx=0;entryDy=0;" edge="1" parent="1" source="VqF0BGbPFirMX3VU7iUr-15" target="VqF0BGbPFirMX3VU7iUr-4">
          <mxGeometry width="50" height="50" relative="1" as="geometry">
            <mxPoint x="260" y="680" as="sourcePoint" />
            <mxPoint x="455" y="590" as="targetPoint" />
          </mxGeometry>
        </mxCell>
        <mxCell id="byxAJlhV1Tv6mKb7Vs70-10" value="" style="endArrow=none;html=1;rounded=0;exitX=0.5;exitY=0;exitDx=0;exitDy=0;" edge="1" parent="1" source="VqF0BGbPFirMX3VU7iUr-14">
          <mxGeometry width="50" height="50" relative="1" as="geometry">
            <mxPoint x="270" y="690" as="sourcePoint" />
            <mxPoint x="610" y="560" as="targetPoint" />
          </mxGeometry>
        </mxCell>
        <mxCell id="byxAJlhV1Tv6mKb7Vs70-11" value="" style="endArrow=none;html=1;rounded=0;entryX=0.5;entryY=1;entryDx=0;entryDy=0;" edge="1" parent="1" target="VqF0BGbPFirMX3VU7iUr-9">
          <mxGeometry width="50" height="50" relative="1" as="geometry">
            <mxPoint x="700" y="650" as="sourcePoint" />
            <mxPoint x="475" y="610" as="targetPoint" />
          </mxGeometry>
        </mxCell>
      </root>
    </mxGraphModel>
  </diagram>
</mxfile>
